# xmcd
#
# Track frame offsets:
# 150
# 12700
# 31477
# 56660
# 69844
# 90103
# 109981
# 124835
# 144261
# 162762
# 178208
# 198884
# 218147
#
# Disc length: 3104 seconds
#
#
# Revision: 0
# Processed by: cddbd v1.5.2PL0 Copyright (c) Steve Scherf et al.
# Submitted via: FreeRIP 2.951 
#
DISCID=b00c1e0d
DTITLE=Jakub Smolik - Paleta zivota
DYEAR=2011
DGENRE=Country
TTITLE0=Ja budu blues Ti hrat
TTITLE1=Otec a syn
TTITLE2=Hotel California
TTITLE3=Proc jsi tak krasna
TTITLE4=Dzinova laska
TTITLE5=Ja budu blues Ti hrat
TTITLE6=Tak me tu mate
TTITLE7=V pohadkach
TTITLE8=Zustan v lasce se mnou
TTITLE9=Nic to neznamena
TTITLE10=Poslouchej lasko
TTITLE11=Ze ja nejsem laska Tva
TTITLE12=At snih se snasi k Vanocum
EXTD=
EXTT0=
EXTT1=
EXTT2=
EXTT3=
EXTT4=
EXTT5=
EXTT6=
EXTT7=
EXTT8=
EXTT9=
EXTT10=
EXTT11=
EXTT12=
PLAYORDER=
